<?xml version="1.0" encoding="UTF-8"?>
<svg width="62px" height="66px" viewBox="0 0 62 66" version="1.1" xmlns="http://www.w3.org/2000/svg" xmlns:xlink="http://www.w3.org/1999/xlink">
    <!-- Generator: Sketch 41.1 (35376) - http://www.bohemiancoding.com/sketch -->
    <title>Group 5</title>
    <desc>Created with Sketch.</desc>
    <defs>
        <rect id="path-1" x="0.36189888" y="0.891215628" width="60.2501625" height="62.7594205" rx="16"></rect>
        <filter x="-50%" y="-50%" width="200%" height="200%" filterUnits="objectBoundingBox" id="filter-2">
            <feOffset dx="1" dy="2" in="SourceAlpha" result="shadowOffsetOuter1"></feOffset>
            <feColorMatrix values="0 0 0 0 0   0 0 0 0 0   0 0 0 0 0  0 0 0 0.5 0" type="matrix" in="shadowOffsetOuter1"></feColorMatrix>
        </filter>
        <rect id="path-3" x="0.36189888" y="0.891215628" width="60.2501625" height="59.6979854" rx="16"></rect>
        <filter x="-50%" y="-50%" width="200%" height="200%" filterUnits="objectBoundingBox" id="filter-4">
            <feOffset dx="1" dy="2" in="SourceAlpha" result="shadowOffsetOuter1"></feOffset>
            <feColorMatrix values="0 0 0 0 0   0 0 0 0 0   0 0 0 0 0  0 0 0 0.5 0" type="matrix" in="shadowOffsetOuter1"></feColorMatrix>
        </filter>
    </defs>
    <g id="Page-1" stroke="none" stroke-width="1" fill="none" fill-rule="evenodd">
        <g id="Desktop-HD" transform="translate(-508.000000, -195.000000)">
            <g id="Group-5" transform="translate(507.708156, 195.000000)">
                <g id="Rectangle-6">
                    <use fill="black" fill-opacity="1" filter="url(#filter-2)" xlink:href="#path-1"></use>
                    <use fill="#FFFFFF" fill-rule="evenodd" xlink:href="#path-1"></use>
                </g>
                <g id="Rectangle-6">
                    <use fill="black" fill-opacity="1" filter="url(#filter-4)" xlink:href="#path-3"></use>
                    <use fill="#FFFFFF" fill-rule="evenodd" xlink:href="#path-3"></use>
                </g>
                <ellipse id="Oval-2" stroke="#E0E0E0" stroke-width="1.6" cx="30.1196011" cy="30.7402083" rx="14.6951616" ry="15.3071757"></ellipse>
                <path d="M33.2927987,27.8146917 C31.9805375,26.2338485 30.6758127,24.6606967 29.3619343,23.0912317 C29.353574,23.7752923 29.353574,24.4563017 29.353574,25.1373111 L29.353574,27.1906688 L29.353574,29.2345234 C29.3494854,29.2362079 29.3453968,29.2378606 29.3413082,29.2395451 C29.2251489,29.1177535 29.1089896,28.9959302 28.9928304,28.8741386 C28.8774034,28.7531416 28.7619153,28.6321446 28.6465189,28.5111158 C28.5296883,28.388625 28.4129188,28.2660388 28.2961187,28.143548 C28.1792882,28.0210255 28.0624271,27.8985665 27.9455966,27.7760439 C27.8301696,27.6550151 27.7149257,27.5338274 27.5993156,27.4129893 C27.4830648,27.2914838 27.3682175,27.1684526 27.2507157,27.0485363 C27.0144611,27.2993659 26.7843699,27.5436483 26.5510444,27.7913314 C27.4239325,28.7069294 28.3028924,29.6288523 29.1838661,30.5529045 C28.8866485,30.85643 28.5943433,31.154902 28.3020686,31.4534058 C28.0083293,31.7534669 27.7144375,32.0534009 27.4209118,32.3536528 C27.1294914,32.6517752 26.8370031,32.9487534 26.5441487,33.2502765 C26.7803728,33.5012333 27.0104335,33.745611 27.2432097,33.9929445 C27.2649648,33.9712687 27.28077,33.955854 27.2962701,33.940058 C27.6456634,33.5832328 27.9950871,33.2264076 28.3444498,32.8695507 C28.6610121,32.5461928 28.9774523,32.2227078 29.2944417,31.899763 C29.3100944,31.8838081 29.3219331,31.8594307 29.3486921,31.8583183 C29.3503093,31.86334 29.3515297,31.8653105 29.3515297,31.867281 C29.3523536,34.0037824 29.3530858,36.1402838 29.3539402,38.2767853 C29.3539402,38.2828876 29.3555268,38.2890534 29.3568388,38.2950604 C29.357205,38.2967448 29.3589442,38.298334 29.3604087,38.2994782 C29.3619648,38.3006541 29.3639176,38.3012262 29.3717592,38.304913 C30.6730971,36.6630786 31.9755335,35.0198141 33.2813872,33.372227 C32.3870187,32.4341267 31.4969524,31.5005396 30.602889,30.5627572 C31.5016207,29.6445847 32.3950128,28.7318789 33.2927987,27.8146917 M23.9476363,34.5193943 L23.9476363,26.4803557 C23.9527013,26.4562008 23.9602072,26.4323001 23.9624041,26.4078592 C23.9758599,26.2567639 23.9837015,26.1049694 24.0015815,25.9544779 C24.0557709,25.4987766 24.1579557,25.054803 24.3192728,24.6270387 C24.8306543,23.2709633 25.7085769,22.2565526 26.9509655,21.5894004 C27.6416358,21.2185273 28.3791725,21.0210927 29.1564663,20.9878479 C29.1819134,20.9867673 29.2071773,20.9796798 29.2325023,20.9753891 L30.6586039,20.9753891 C30.6820066,20.9794891 30.7052873,20.9853053 30.7288731,20.9873712 C30.8779244,21.000561 31.0274638,21.0087928 31.1760269,21.0263369 C31.5318581,21.0683537 31.8788714,21.1532772 32.2184397,21.2712549 C33.8912006,21.8523075 35.2004106,23.2590129 35.7068797,25.0214947 C35.8245341,25.4310157 35.9038348,25.8481328 35.9190909,26.2767552 C35.9198842,26.2989714 35.9272071,26.3209651 35.9314787,26.3430541 L35.9314787,34.6566959 C35.927146,34.6788167 35.9208606,34.700715 35.9187857,34.7230583 C35.9048723,34.8738994 35.8982206,35.025821 35.8773199,35.1755814 C35.807844,35.6735856 35.6792663,36.1552218 35.4807246,36.6142921 C34.879119,38.005424 33.9031003,39.0004472 32.5530041,39.5925602 C32.0159924,39.8280705 31.4535032,39.9594287 30.8717304,40.0002378 C30.8004848,40.0052595 30.7296359,40.0161927 30.6586039,40.0243609 L29.2444935,40.0243609 C29.2231046,40.0203881 29.2018377,40.0140951 29.1802657,40.0127284 C28.8673039,39.9930231 28.556722,39.9555512 28.249893,39.8861059 C27.6540542,39.7513151 27.0952264,39.5200955 26.5754235,39.188474 C25.7925765,38.6890396 25.1671104,38.0270998 24.7033581,37.201733 C24.2664564,36.4241676 24.0231535,35.5844985 23.9711916,34.6847601 C23.9679878,34.6293627 23.9556914,34.5745057 23.9476363,34.5193943" id="Fill-1" fill="#B5B5B5"></path>
                <path d="M31.9333964,33.4365839 C31.4099321,34.0970935 30.8905563,34.7524224 30.3724926,35.4061304 C30.3655969,35.404001 30.3634001,35.4038103 30.361844,35.4026979 C30.3604099,35.4016491 30.3588843,35.3996468 30.3587012,35.3979305 C30.3574197,35.3856306 30.3555585,35.3732988 30.3555585,35.3609671 C30.3559551,34.1778217 30.3564738,32.9946763 30.3572366,31.8115309 C30.3572366,31.8083208 30.3611727,31.8051107 30.3679769,31.7946542 C30.8886341,32.3407458 31.4081624,32.8856932 31.9333964,33.4365839" id="Fill-4" fill="#B5B5B5"></path>
                <path d="M31.9220368,27.7558237 C31.4016541,28.2873905 30.8861535,28.8139675 30.372453,29.3386692 C30.3655878,29.3366033 30.3633909,29.3364444 30.3618653,29.335332 C30.3604007,29.3342514 30.3587531,29.3321538 30.3587531,29.330501 C30.3575631,28.2015452 30.3564647,27.0726212 30.3555493,25.9436654 C30.3555188,25.9272655 30.3573495,25.9108338 30.3582344,25.8955463 C30.3624756,25.8938936 30.3642758,25.8928448 30.366198,25.892527 C30.3679677,25.8922409 30.3704392,25.8920184 30.3716292,25.8930355 C30.3777316,25.8982161 30.3842611,25.9031424 30.3893566,25.9093083 C30.8984803,26.522525 31.4074514,27.1358054 31.9220368,27.7558237" id="Fill-6" fill="#B5B5B5"></path>
            </g>
        </g>
    </g>
</svg>