<?xml version="1.0" encoding="UTF-8"?>
<svg width="100px" height="101px" viewBox="0 0 100 101" version="1.1" xmlns="http://www.w3.org/2000/svg" xmlns:xlink="http://www.w3.org/1999/xlink">
    <!-- Generator: Sketch 41.2 (35397) - http://www.bohemiancoding.com/sketch -->
    <title>Group 5</title>
    <desc>Created with Sketch.</desc>
    <defs>
        <ellipse id="path-1" cx="43.8462022" cy="43.8428199" rx="43.8428199" ry="43.8428199"></ellipse>
    </defs>
    <g id="Page-1" stroke="none" stroke-width="1" fill="none" fill-rule="evenodd">
        <g id="Desktop-HD" transform="translate(-1027.000000, -147.000000)">
            <g id="Group-5" transform="translate(1027.000000, 147.000000)">
                <path d="M76.171875,0.369637487 C90.625,0.369637487 100,9.74463749 100,24.1977625 L100,76.5415125 C100,90.9946375 90.625,100.369637 76.171875,100.369637 L23.828125,100.369637 C9.375,100.369637 0,90.9946375 0,76.5415125 L0,24.1977625 C0,9.74463749 9.375,0.369637487 23.828125,0.369637487 L76.171875,0.369637487 Z" id="App-Icon-Shape" fill="#FFFFFF"></path>
                <g id="Group-23" transform="translate(6.067595, 6.164275)">
                    <g id="Group" transform="translate(0.067414, 0.090160)">
                        <mask id="mask-2" fill="white">
                            <use xlink:href="#path-1"></use>
                        </mask>
                        <use id="Mask" fill="#2D95F2" xlink:href="#path-1"></use>
                        <g id="Group-23" mask="url(#mask-2)">
                            <g transform="translate(22.055381, 17.511575)">
                                <g id="Page-1" stroke-width="1" fill="none" transform="translate(23.695003, 24.034905) scale(-1, 1) translate(-23.695003, -24.034905) translate(0.195003, 0.034905)">
                                    <g id="Group-3" transform="translate(0.000000, 0.195176)" fill="#FFFFFF">
                                        <path d="M27.2573731,0.158828366 C32.0863869,0.872682592 36.2569753,2.96755081 39.7390722,6.34618087 C44.4530296,10.9200548 46.9426172,16.4980278 46.9439609,23.1199076 C46.9454726,30.786534 46.9390899,38.4531604 46.9597497,46.1197868 C46.9612614,46.6935577 46.8379746,46.8642108 46.2369933,46.8623632 C38.5982492,46.8403597 30.9593371,46.8820152 23.3209289,46.8398558 C11.347158,46.7738453 1.35135124,37.8100197 0.131920261,25.8023198 C-1.23179326,12.3749737 8.16840715,2.14099159 19.4001056,0.171761725 C19.5087794,0.152781601 19.6224922,0.162019714 19.7336854,0.157988538 C19.7236075,2.70098924 19.7136975,5.24398994 19.7037876,7.78715861 C12.1090504,9.60824273 6.75430392,16.9869759 7.53215308,24.5595416 C8.38777036,32.8884567 14.7744981,39.0983167 22.8781713,39.2945006 C28.217465,39.4236662 33.5621336,39.3245665 38.9044506,39.3443864 C39.3660204,39.3460661 39.5291151,39.2350407 39.5272675,38.7427333 C39.5074475,33.4282985 39.5910944,28.1123521 39.4881315,22.7999329 C39.3498957,15.6607188 34.2346682,9.45085887 27.2884467,7.78715861 C27.2782008,5.24432587 27.2677869,2.7016611 27.2573731,0.158828366" id="Fill-1"></path>
                                    </g>
                                    <path d="M19.733803,0.353114292 C20.4187671,0.0915916963 21.1411876,0.0292764216 21.859241,0.03129201 C23.6636965,0.0364989467 25.4825971,-0.155653814 27.2574906,0.35395412 C27.2648546,2.18155151 27.9140466,4.00867999 27.9214594,5.83622857 C27.9243604,6.55144481 27.2855144,7.26704902 27.2883963,7.98228436 C27.2811738,10.7234846 27.2890682,13.4648528 27.255475,16.2055491 C27.2480846,16.8112334 27.3960623,17.195203 27.921459,17.582364 C30.8983152,19.7756601 31.7860139,23.6956436 30.1063569,26.9489712 C28.4389614,30.1782798 24.6377296,31.7595089 21.1900656,30.588788 C18.4527286,29.6592658 16.7300724,27.7380741 16.203164,24.8913914 C15.6421586,21.8612902 16.7151235,19.4032801 19.1274468,17.5173612 C19.430289,17.2805296 19.7457286,17.1300323 19.7393459,16.6249595 C19.7027294,13.7445157 19.7107917,10.8632321 19.7037372,7.98228436 C18.5023115,5.34628187 19.7237251,2.89611499 19.733803,0.353114292 Z" id="Fill-4" fill="#FFFFFF"></path>
                                </g>
                                <rect id="Rectangle" fill="#FFFFFF" x="0.27490903" y="38.6481871" width="6.89463611" height="48.9428432"></rect>
                            </g>
                        </g>
                    </g>
                </g>
            </g>
        </g>
    </g>
</svg>