<?xml version="1.0" encoding="UTF-8"?>
<svg width="143px" height="185px" viewBox="0 0 143 185" version="1.1" xmlns="http://www.w3.org/2000/svg" xmlns:xlink="http://www.w3.org/1999/xlink">
    <!-- Generator: Sketch 41.2 (35397) - http://www.bohemiancoding.com/sketch -->
    <title>Group 6</title>
    <desc>Created with Sketch.</desc>
    <defs></defs>
    <g id="Page-1" stroke="none" stroke-width="1" fill="none" fill-rule="evenodd">
        <g id="Desktop-HD" transform="translate(-68.000000, -197.000000)" fill="#FFFFFF">
            <g id="Group-8" transform="translate(68.000000, 181.000000)">
                <g id="Group-6" transform="translate(0.000000, 16.000000)">
                    <path d="M10,7.89718195 L9.97808838,5.48626709 L36.0004883,0.2421875 L36.0013428,6.02844238 L36,32.0882353 L36,34 C36,37.8659932 32.8659932,41 29,41 C25.1340068,41 22,37.8659932 22,34 C22,30.1340068 25.1340068,27 29,27 C30.0735973,27 31.0907446,27.241691 32,27.6736312 L32,6.87102189 L14,10.6613573 L14,36.0882353 L14,38 C14,41.8659932 10.8659932,45 7,45 C3.13400675,45 0,41.8659932 0,38 C0,34.1340068 3.13400675,31 7,31 C8.07359729,31 9.09074462,31.241691 10,31.6736312 L10,7.89718195 Z" id="Combined-Shape" fill-opacity="0.35"></path>
                    <path d="M60,147.897182 L59.9780884,145.486267 L86.0004883,140.242188 L86.0013428,146.028442 L86,172.088235 L86,174 C86,177.865993 82.8659932,181 79,181 C75.1340068,181 72,177.865993 72,174 C72,170.134007 75.1340068,167 79,167 C80.0735973,167 81.0907446,167.241691 82,167.673631 L82,146.871022 L64,150.661357 L64,176.088235 L64,178 C64,181.865993 60.8659932,185 57,185 C53.1340068,185 50,181.865993 50,178 C50,174.134007 53.1340068,171 57,171 C58.0735973,171 59.0907446,171.241691 60,171.673631 L60,147.897182 Z" id="Combined-Shape" fill-opacity="0.7"></path>
                    <path d="M135,94.2568665 C135,98.1228597 131.865993,101.256866 128,101.256866 C124.134007,101.256866 121,98.1228597 121,94.2568665 C121,90.3908732 124.134007,87.2568665 128,87.2568665 C129.073597,87.2568665 130.090745,87.4985575 131,87.9304976 L131,64.1540484 L130.978088,61.7431335 L142.063818,61.7431335 L142.063818,72.8542872 L135,69.5880587 L135,92.3451017 L135,94.2568665 Z" id="Combined-Shape" fill-opacity="0.9"></path>
                </g>
            </g>
        </g>
    </g>
</svg>