<?xml version="1.0" encoding="UTF-8"?>
<svg width="112px" height="217px" viewBox="0 0 112 217" version="1.1" xmlns="http://www.w3.org/2000/svg" xmlns:xlink="http://www.w3.org/1999/xlink">
    <!-- Generator: Sketch 41.2 (35397) - http://www.bohemiancoding.com/sketch -->
    <title>Group 7</title>
    <desc>Created with Sketch.</desc>
    <defs></defs>
    <g id="Page-1" stroke="none" stroke-width="1" fill="none" fill-rule="evenodd">
        <g id="Desktop-HD" transform="translate(-716.000000, -181.000000)" fill="#FFFFFF">
            <g id="Group-8" transform="translate(68.000000, 181.000000)">
                <g id="Group-7" transform="translate(648.000000, 0.000000)">
                    <path d="M85.9449707,7.81926942 L85.9230591,5.40835456 L111.945459,0.164274974 L111.946313,5.95052986 L111.944971,32.0103228 L111.944971,33.9220875 C111.944971,37.7880807 108.810964,40.9220875 104.944971,40.9220875 C101.078977,40.9220875 97.9449707,37.7880807 97.9449707,33.9220875 C97.9449707,30.0560942 101.078977,26.9220875 104.944971,26.9220875 C106.018568,26.9220875 107.035715,27.1637785 107.944971,27.5957186 L107.944971,6.79310936 L89.9449707,10.5834448 L89.9449707,36.0103228 L89.9449707,37.9220875 C89.9449707,41.7880807 86.810964,44.9220875 82.9449707,44.9220875 C79.0789775,44.9220875 75.9449707,41.7880807 75.9449707,37.9220875 C75.9449707,34.0560942 79.0789775,30.9220875 82.9449707,30.9220875 C84.018568,30.9220875 85.0357153,31.1637785 85.9449707,31.5957186 L85.9449707,7.81926942 Z" id="Combined-Shape" fill-opacity="0.3" transform="translate(93.945215, 22.543181) scale(-1, 1) translate(-93.945215, -22.543181) "></path>
                    <path d="M61.9400024,179.819269 L61.9180908,177.408355 L87.9404907,172.164275 L87.9413452,177.95053 L87.9400024,204.010323 L87.9400024,205.922087 C87.9400024,209.788081 84.8059957,212.922087 80.9400024,212.922087 C77.0740092,212.922087 73.9400024,209.788081 73.9400024,205.922087 C73.9400024,202.056094 77.0740092,198.922087 80.9400024,198.922087 C82.0135997,198.922087 83.0307471,199.163779 83.9400024,199.595719 L83.9400024,178.793109 L65.9400024,182.583445 L65.9400024,208.010323 L65.9400024,209.922087 C65.9400024,213.788081 62.8059957,216.922087 58.9400024,216.922087 C55.0740092,216.922087 51.9400024,213.788081 51.9400024,209.922087 C51.9400024,206.056094 55.0740092,202.922087 58.9400024,202.922087 C60.0135997,202.922087 61.0307471,203.163779 61.9400024,203.595719 L61.9400024,179.819269 Z" id="Combined-Shape" fill-opacity="0.5" transform="translate(69.940247, 194.543181) scale(-1, 1) translate(-69.940247, -194.543181) "></path>
                    <path d="M14.4400024,117.35131 C14.4400024,121.217303 11.3059957,124.35131 7.44000244,124.35131 C3.57400919,124.35131 0.440002441,121.217303 0.440002441,117.35131 C0.440002441,113.485316 3.57400919,110.35131 7.44000244,110.35131 C8.51359973,110.35131 9.53074706,110.593001 10.4400024,111.024941 L10.4400024,87.2484917 L10.4180908,84.8375768 L21.5038208,84.8375768 L21.5038208,95.9487305 L14.4400024,92.682502 L14.4400024,115.439545 L14.4400024,117.35131 Z" id="Combined-Shape" fill-opacity="0.9" transform="translate(10.971912, 104.594443) scale(-1, 1) translate(-10.971912, -104.594443) "></path>
                </g>
            </g>
        </g>
    </g>
</svg>