<?xml version="1.0" encoding="UTF-8"?>
<svg width="301px" height="50px" viewBox="0 0 301 50" version="1.1" xmlns="http://www.w3.org/2000/svg" xmlns:xlink="http://www.w3.org/1999/xlink">
    <!-- Generator: Sketch 41.2 (35397) - http://www.bohemiancoding.com/sketch -->
    <title>PLAYLYST</title>
    <desc>Created with Sketch.</desc>
    <defs></defs>
    <g id="Page-1" stroke="none" stroke-width="1" fill="none" fill-rule="evenodd">
        <g id="Splash-Screen" transform="translate(-224.000000, -951.000000)" fill="#FFFFFF">
            <g id="Group-11" transform="translate(223.500000, 950.594127)">
                <g id="Group-4" transform="translate(0.465381, 0.858310)">
                    <path d="M0.846993619,1.34029799 L13.8776685,1.34029799 C16.2232017,1.34029799 18.351524,1.59005009 20.2626992,2.08956179 C22.1738744,2.58907349 23.8135513,3.34918859 25.181779,4.3699299 C26.5500067,5.3906712 27.603309,6.67200808 28.3417176,8.21397899 C29.0801262,9.75594989 29.449325,11.5693673 29.449325,13.6542857 C29.449325,15.7392042 29.0692674,17.5526216 28.3091409,19.0945925 C27.5490144,20.6365634 26.4848533,21.9179003 25.1166256,22.9386416 C23.7483979,23.9593829 22.0978622,24.7303568 20.1649691,25.2515864 C18.232076,25.772816 16.092895,26.0334269 13.7473617,26.0334269 L5.53803658,26.0334269 L5.53803658,47.4688871 L0.846993619,47.4688871 L0.846993619,1.34029799 Z M5.53803658,22.059071 L13.4867483,22.059071 C17.1787913,22.059071 19.9803583,21.3423911 21.8915335,19.9090097 C23.8027088,18.4756283 24.758282,16.3907412 24.758282,13.6542857 C24.758282,10.7875229 23.7701324,8.69177702 21.7938035,7.36698512 C19.8174746,6.04219322 17.0484839,5.3798072 13.4867483,5.3798072 L5.53803658,5.3798072 L5.53803658,22.059071 Z M45.5887466,43.2990711 L67.0893602,43.2990711 L67.0893602,47.4688871 L40.8977037,47.4688871 L40.8977037,1.34029799 L45.5887466,1.34029799 L45.5887466,43.2990711 Z M76.0619107,47.4688871 L70.9147941,47.4688871 L90.8517267,1.34029799 L95.4124629,1.34029799 L115.219089,47.4688871 L110.006819,47.4688871 L104.924856,35.3503594 L92.996886,6.5251463 L76.0619107,47.4688871 Z M136.17986,47.4688871 L131.488817,47.4688871 L131.488817,27.5971079 L114.223173,1.34029799 L120.086977,1.34029799 L133.964645,23.6879054 L147.972621,1.34029799 L153.445504,1.34029799 L136.17986,27.5971079 L136.17986,47.4688871 Z M166.522717,43.2990711 L188.023331,43.2990711 L188.023331,47.4688871 L161.831674,47.4688871 L161.831674,1.34029799 L166.522717,1.34029799 L166.522717,43.2990711 Z M207.290115,47.4688871 L202.599072,47.4688871 L202.599072,27.5971079 L185.333427,1.34029799 L191.197231,1.34029799 L205.0749,23.6879054 L219.082875,1.34029799 L224.555759,1.34029799 L207.290115,27.5971079 L207.290115,47.4688871 Z M255.289536,8.76778267 C254.290513,7.37783707 253.009176,6.25938199 251.445487,5.41238389 C249.881798,4.56538579 247.992369,4.14189309 245.777144,4.14189309 C244.647813,4.14189309 243.496781,4.31563368 242.324015,4.66312008 C241.151248,5.01060648 240.087087,5.54268705 239.131499,6.25937775 C238.175912,6.97606846 237.404938,7.87734779 236.818555,8.96324279 C236.232171,10.0491378 235.938984,11.3304747 235.938984,12.8072919 C235.938984,14.2841091 236.221313,15.5002932 236.785978,16.4558808 C237.350643,17.4114685 238.0999,18.2258775 239.033769,18.8991324 C239.967639,19.5723873 241.0318,20.1261854 242.226285,20.5605434 C243.420769,20.9949014 244.66953,21.4292529 245.972604,21.8636109 C247.579728,22.3848405 249.197688,22.9494975 250.82653,23.5575987 C252.455373,24.1656999 253.921309,24.9583913 255.224383,25.9356968 C256.527457,26.9130023 257.591618,28.1509041 258.416898,29.6494392 C259.242178,31.1479743 259.654812,33.048262 259.654812,35.3503594 C259.654812,37.6524568 259.209602,39.6396149 258.319168,41.3118932 C257.428734,42.9841715 256.277703,44.3632375 254.866039,45.4491325 C253.454376,46.5350275 251.847275,47.3385777 250.04469,47.8598073 C248.242104,48.3810369 246.428686,48.6416478 244.604383,48.6416478 C243.214437,48.6416478 241.824513,48.5004836 240.434567,48.2181509 C239.044621,47.9358182 237.719849,47.5123255 236.460211,46.9476601 C235.200573,46.3829947 234.027824,45.6663147 232.941929,44.7975987 C231.856034,43.9288827 230.900461,42.9298743 230.07518,41.8005435 L234.11469,38.8034883 C235.113713,40.4540487 236.514497,41.8331146 238.317082,42.9407275 C240.119668,44.0483404 242.237131,44.6021386 244.669536,44.6021386 C245.842303,44.6021386 247.036769,44.4175392 248.252972,44.0483349 C249.469174,43.6791306 250.565912,43.1144737 251.543217,42.3543472 C252.520523,41.5942207 253.324073,40.660365 253.953892,39.5527521 C254.583711,38.4451392 254.898616,37.1529435 254.898616,35.6761263 C254.898616,34.0690017 254.583711,32.7333709 253.953892,31.6691938 C253.324073,30.6050167 252.487946,29.7145961 251.445487,28.9979054 C250.403028,28.2812147 249.208561,27.6839814 247.862052,27.2061876 C246.515542,26.7283938 245.103899,26.2506072 243.627082,25.7728134 C242.106829,25.2950196 240.608317,24.7520802 239.131499,24.143979 C237.654682,23.5358778 236.32991,22.7431864 235.157144,21.7658809 C233.984377,20.7885754 233.039662,19.58325 232.322972,18.1498686 C231.606281,16.7164872 231.247941,14.9573637 231.247941,12.8724453 C231.247941,10.6572195 231.693151,8.74607291 232.583585,7.13894831 C233.474019,5.5318237 234.635909,4.20705167 236.069291,3.16459247 C237.502672,2.12213327 239.088055,1.36201817 240.825487,0.884224367 C242.562919,0.406430566 244.278608,0.167537248 245.972604,0.167537248 C249.099981,0.167537248 251.771243,0.721335393 253.986469,1.8289483 C256.201695,2.9365612 257.873948,4.25047444 259.003279,5.77072745 L255.289536,8.76778267 Z M285.56724,47.4688871 L280.876197,47.4688871 L280.876197,5.51011395 L265.434847,5.51011395 L265.434847,1.34029799 L301.00859,1.34029799 L301.00859,5.51011395 L285.56724,5.51011395 L285.56724,47.4688871 Z" id="PLAYLYST"></path>
                </g>
            </g>
        </g>
    </g>
</svg>